<?xml version="1.0" encoding="utf-8"?>
<!-- Generator: Adobe Illustrator 26.0.0, SVG Export Plug-In . SVG Version: 6.00 Build 0)  -->
<svg version="1.1" id="Capa_1" xmlns="http://www.w3.org/2000/svg" xmlns:xlink="http://www.w3.org/1999/xlink" x="0px" y="0px"
	 viewBox="0 0 256 256" style="enable-background:new 0 0 256 256;" xml:space="preserve">
<style type="text/css">
	.st0{fill:#003A34;}
	.st1{fill:url(#SVGID_1_);}
	.st2{fill:url(#SVGID_00000179637225126384850110000017651908763868411052_);}
	.st3{fill:url(#SVGID_00000031909622696606924530000005398284047909347985_);}
	.st4{fill-opacity:0.24;}
	.st5{fill-opacity:0.32;}
	.st6{fill:url(#SVGID_00000183212478064110313720000004673643018310759051_);}
	.st7{opacity:0.7;fill:url(#SVGID_00000146461844821179309160000002953394974655345822_);enable-background:new    ;}
</style>
<path class="st0" d="M60,0h136c33.1,0,60,26.9,60,60v136c0,33.1-26.9,60-60,60H60c-33.1,0-60-26.9-60-60V60C0,26.9,26.9,0,60,0z"/>
<g>
	
		<linearGradient id="SVGID_1_" gradientUnits="userSpaceOnUse" x1="74.985" y1="1122.0593" x2="94.1304" y2="1194.8093" gradientTransform="matrix(1 0 0 1 0 -980)">
		<stop  offset="0" style="stop-color:#159455"/>
		<stop  offset="1" style="stop-color:#3FBDA9"/>
	</linearGradient>
	<path class="st1" d="M57.4,147.1h55.1l-32.4,64.9c-2.2,5.4-9.7,5.4-11.9,0l-22.7-45.4C41.2,157.9,47.7,147.1,57.4,147.1z"/>
	
		<linearGradient id="SVGID_00000104665093196193009480000007193661861567762832_" gradientUnits="userSpaceOnUse" x1="85.9415" y1="1026.0194" x2="197.0125" y2="1075.4012" gradientTransform="matrix(1 0 0 1 0 -980)">
		<stop  offset="0" style="stop-color:#23A794"/>
		<stop  offset="0.5684" style="stop-color:#007A84"/>
		<stop  offset="1" style="stop-color:#005158"/>
	</linearGradient>
	<path style="fill:url(#SVGID_00000104665093196193009480000007193661861567762832_);" d="M107.1,40h75.7
		c21.6,0,35.7,22.7,25.9,41.1l-24.9,49.7l0,0l-4.3,8.6l4.3-8.6c8.6-19.5-4.3-41.1-25.9-41.1H88.7c-5.4,0-8.6-5.4-6.5-9.7l18.4-35.7
		C102.8,41.1,104.9,40,107.1,40z"/>
	
		<linearGradient id="SVGID_00000008144872222304867620000000111853889016127148_" gradientUnits="userSpaceOnUse" x1="163.9024" y1="1098.8086" x2="143.8013" y2="1046.1608" gradientTransform="matrix(1 0 0 1 0 -980)">
		<stop  offset="0" style="stop-color:#004A8B"/>
		<stop  offset="0.4056" style="stop-color:#105DA8;stop-opacity:0.5002"/>
		<stop  offset="1" style="stop-color:#2170C6;stop-opacity:0"/>
	</linearGradient>
	<path style="fill:url(#SVGID_00000008144872222304867620000000111853889016127148_);" d="M107.1,40h75.7
		c21.6,0,35.7,22.7,25.9,41.1l-24.9,49.7l0,0l-2.2,5.4l2.2-5.4c9.7-19.5-4.3-41.1-25.9-41.1H88.7c-5.4,0-8.6-5.4-6.5-9.7l18.4-35.7
		C102.8,41.1,104.9,40,107.1,40z"/>
	<g>
		<path class="st4" d="M157.9,148.1H57.4c-5.4,0-9.7,3.2-11.9,7.6L70.4,106c2.2-4.3,7.6-7.6,11.9-7.6h100.5
			c10.8,0,20.5-6.5,25.9-16.2l2.2-3.2l-27,53C178.5,141.6,168.7,148.1,157.9,148.1z"/>
	</g>
	<g>
		<path class="st5" d="M157.9,151.4H57.4c-5.4,0-9.7,3.2-11.9,7.6l24.9-49.7c2.2-5.4,7.6-7.6,11.9-7.6h100.5
			c10.8,0,20.5-6.5,25.9-16.2l1.1-3.2l-25.9,53C178.5,144.9,168.7,151.4,157.9,151.4z"/>
	</g>
	
		<linearGradient id="SVGID_00000053529616833895018830000011858289723856526471_" gradientUnits="userSpaceOnUse" x1="77.4288" y1="1071.1021" x2="177.9373" y2="1120.8785" gradientTransform="matrix(1 0 0 1 0 -980)">
		<stop  offset="0" style="stop-color:#7FD9A2"/>
		<stop  offset="0.1961" style="stop-color:#47BF79"/>
		<stop  offset="0.7139" style="stop-color:#009280"/>
		<stop  offset="1" style="stop-color:#007A84"/>
	</linearGradient>
	<path style="fill:url(#SVGID_00000053529616833895018830000011858289723856526471_);" d="M157.9,147.1H57.4
		c-5.4,0-9.7,3.2-11.9,7.6l24.9-49.7c2.2-4.3,7.6-7.6,11.9-7.6h100.5c10.8,0,20.5-6.5,25.9-16.2l2.2-3.2l-27,54.1
		C178.5,141.6,168.7,147.1,157.9,147.1z"/>
	
		<linearGradient id="SVGID_00000033334704973955038470000002184440478665553322_" gradientUnits="userSpaceOnUse" x1="76.6658" y1="1072.9117" x2="99.6394" y2="1084.3986" gradientTransform="matrix(1 0 0 1 0 -980)">
		<stop  offset="0" style="stop-color:#A8E47C;stop-opacity:0.86"/>
		<stop  offset="0.3675" style="stop-color:#87D152;stop-opacity:0.2"/>
		<stop  offset="1" style="stop-color:#58BE5A;stop-opacity:0"/>
	</linearGradient>
	<path style="opacity:0.7;fill:url(#SVGID_00000033334704973955038470000002184440478665553322_);enable-background:new    ;" d="
		M157.9,147.1H58.5c-5.4,0-9.7,3.2-11.9,7.6l24.9-49.7c2.2-4.3,7.6-7.6,11.9-7.6h100.5c10.8,0,20.5-5.4,24.9-15.1l-24.9,49.7
		C178.5,141.6,168.7,147.1,157.9,147.1z"/>
</g>
</svg>
