<?xml version="1.0" encoding="utf-8"?>
<!-- Generator: Adobe Illustrator 26.0.0, SVG Export Plug-In . SVG Version: 6.00 Build 0)  -->
<svg version="1.1" id="Capa_1" xmlns="http://www.w3.org/2000/svg" xmlns:xlink="http://www.w3.org/1999/xlink" x="0px" y="0px"
	 viewBox="0 0 256 256" style="enable-background:new 0 0 256 256;" xml:space="preserve">
<style type="text/css">
	.st0{fill:#023838;}
	.st1{opacity:0.1;enable-background:new    ;}
	.st2{opacity:0.2;enable-background:new    ;}
	.st3{fill:#036C70;}
	.st4{fill:#1A9BA1;}
	.st5{fill:#37C6D0;}
	.st6{fill:url(#SVGID_1_);}
	.st7{fill:#FFFFFF;}
</style>
<path class="st0" d="M60,0h136c33.1,0,60,26.9,60,60v136c0,33.1-26.9,60-60,60H60c-33.1,0-60-26.9-60-60V60C0,26.9,26.9,0,60,0z"/>
<path class="st1" d="M137,108.9v76.8c0,2.7-1.6,5.1-4.1,6.1c-0.8,0.3-1.6,0.5-2.5,0.5h-25.8c0-0.6,0-1.2,0-1.8c0-0.6,0-1.2,0.1-1.8
	c0.7-11.5,7.7-21.7,18.3-26.2v-6.7c-23.5-3.7-39.6-25.8-35.8-49.3c0-0.2,0.1-0.3,0.1-0.5c0.2-1.2,0.4-2.4,0.8-3.6h42.4
	C134,102.3,137,105.3,137,108.9z"/>
<path class="st2" d="M126.8,105.9H87.2c-4,23.5,11.8,45.8,35.3,49.8c0.7,0.1,1.4,0.2,2.1,0.3c-11.2,5.3-19.3,20.3-20,32.7
	c-0.1,0.6-0.1,1.2-0.1,1.8c0,0.6,0,1.2,0,1.8c0.1,1.2,0.2,2.4,0.5,3.6h21.7c2.7,0,5.1-1.6,6.1-4.1c0.3-0.8,0.5-1.6,0.5-2.5v-76.8
	C133.4,108.9,130.4,105.9,126.8,105.9z"/>
<path class="st2" d="M126.8,105.9H87.2c-4,23.5,11.8,45.8,35.3,49.8c0.5,0.1,1,0.2,1.4,0.2c-10.8,5.7-18.6,20.7-19.3,32.8h22.1
	c3.6,0,6.6-3,6.6-6.6v-69.6C133.4,108.9,130.4,105.9,126.8,105.9z"/>
<path class="st2" d="M123.2,105.9h-36c-3.8,22.2,10.1,43.5,31.9,49.1c-8.3,9.4-13.3,21.2-14.5,33.7h18.5c3.6,0,6.6-3,6.6-6.6v-69.6
	C129.8,108.9,126.9,105.9,123.2,105.9z"/>
<g>
	<circle class="st3" cx="130.2" cy="90.3" r="50.2"/>
	<circle class="st4" cx="172" cy="136.4" r="46"/>
	<circle class="st5" cx="136.3" cy="180.3" r="35.6"/>
	
		<linearGradient id="SVGID_1_" gradientUnits="userSpaceOnUse" x1="54.0254" y1="-872.0453" x2="114.1117" y2="-767.9783" gradientTransform="matrix(1 1.694710e-03 -1.694710e-03 1 -1.365 947.7859)">
		<stop  offset="0" style="stop-color:#058F92"/>
		<stop  offset="0.5" style="stop-color:#038489"/>
		<stop  offset="1" style="stop-color:#026D71"/>
	</linearGradient>
	<path class="st6" d="M45.8,81.8l76.7,0.1c4.2,0,7.7,3.4,7.7,7.7l-0.1,76.7c0,4.2-3.4,7.7-7.7,7.7l-76.7-0.1c-4.2,0-7.7-3.4-7.7-7.7
		l0.1-76.7C38.1,85.2,41.6,81.8,45.8,81.8z"/>
	<path class="st7" d="M72.3,127c-1.8-1.2-3.3-2.8-4.4-4.6c-1.1-1.9-1.6-4.1-1.5-6.4c-0.1-3,0.9-5.9,2.9-8.2c2-2.3,4.6-4,7.6-4.9
		c3.3-1.1,6.8-1.6,10.3-1.6c4.6-0.2,9.2,0.5,13.6,1.9l0,9.6c-1.9-1.2-4-2-6.1-2.5c-2.4-0.6-4.8-0.9-7.2-0.9
		c-2.6-0.1-5.1,0.4-7.4,1.6c-1.8,0.8-2.9,2.5-2.9,4.4c0,1.2,0.4,2.3,1.3,3.1c1,1,2.1,1.8,3.3,2.4c1.4,0.7,3.5,1.6,6.3,2.8
		c0.3,0.1,0.6,0.2,0.9,0.4c2.7,1.1,5.4,2.4,7.9,3.9c1.9,1.2,3.5,2.8,4.7,4.7c1.2,2.2,1.8,4.6,1.7,7.1c0.1,3.1-0.8,6.1-2.7,8.6
		c-1.9,2.3-4.3,3.9-7.1,4.8c-3.3,1-6.7,1.5-10.1,1.5c-3.1,0-6.2-0.2-9.2-0.8c-2.6-0.4-5.1-1.2-7.5-2.2l0-10.1
		c2.3,1.6,4.8,2.9,7.5,3.6c2.7,0.8,5.5,1.3,8.3,1.3c2.6,0.2,5.2-0.4,7.5-1.6c1.6-0.9,2.6-2.6,2.6-4.5c0-1.3-0.5-2.5-1.4-3.5
		c-1.1-1.1-2.5-2.1-3.9-2.7c-1.7-0.8-4.1-1.9-7.4-3.3C77.1,129.8,74.7,128.5,72.3,127z"/>
</g>
</svg>
