<?xml version="1.0" encoding="utf-8"?>
<!-- Generator: Adobe Illustrator 26.0.0, SVG Export Plug-In . SVG Version: 6.00 Build 0)  -->
<svg version="1.1" id="Capa_1" xmlns="http://www.w3.org/2000/svg" xmlns:xlink="http://www.w3.org/1999/xlink" x="0px" y="0px"
	 viewBox="0 0 256 256" style="enable-background:new 0 0 256 256;" xml:space="preserve">
<style type="text/css">
	.st0{fill:#330A11;}
	.st1{fill:url(#SVGID_1_);}
	.st2{fill:url(#SVGID_00000128461815154852483770000015538266952843664056_);}
	.st3{fill:url(#SVGID_00000063618180012759493130000003946578466782360226_);}
</style>
<path class="st0" d="M60,0h136c33.1,0,60,26.9,60,60v136c0,33.1-26.9,60-60,60H60c-33.1,0-60-26.9-60-60V60C0,26.9,26.9,0,60,0z"/>
<g transform="matrix(.569 0 0 .569 199.451 -82.735)">
	
		<linearGradient id="SVGID_1_" gradientUnits="userSpaceOnUse" x1="-1906.1936" y1="10590.7734" x2="-1570.6696" y2="10392.5176" gradientTransform="matrix(3.800003e-02 0 0 3.800003e-02 -147.8611 92.0354)">
		<stop  offset="0" style="stop-color:#909CA9"/>
		<stop  offset="1" style="stop-color:#EDEDEE"/>
	</linearGradient>
	<path class="st1" d="M-88.4,360.1l-62,20.2l-53.9,23.8l-15.1,4c-3.8,3.7-7.9,7.4-12.2,11.1c-4.8,4.1-9.2,7.9-12.6,10.6
		c-3.8,3-9.4,8.6-12.3,12.2c-4.3,5.3-7.6,11-9.1,15.4c-2.6,7.9-1.3,15.8,3.7,23.2c6.4,9.4,19.1,18.9,33.9,25.4
		c7.5,3.3,20.2,7.6,29.8,10c15.9,4,46.6,8.4,63.5,9c3.4,0.1,8,0.1,8.2,0c0.4-0.2,3-5.2,6-11.5c10.4-21.2,17.9-41.1,22-58.1
		c2.4-10.3,4.4-24,5.6-40.3c0.3-4.5,0.5-19.8,0.2-24.9c-0.4-8.4-1.2-15.3-2.3-22c-0.2-1-0.2-1.9-0.1-1.9c0.2-0.1,0.7-0.3,8.4-2.5
		L-88.4,360.1L-88.4,360.1L-88.4,360.1L-88.4,360.1z M-102.6,368.4c0.6,0,2.1,14.4,2.4,23.5c0.1,1.9,0,3.2,0,3.2
		c-0.4,0-7.9-4.4-13.3-7.8c-4.7-3-13.6-8.9-15-10c-0.5-0.3-0.4-0.4,3.4-1.7C-118.6,373.4-103.1,368.4-102.6,368.4z M-134.1,378.8
		c0.4,0,1.5,0.6,4.1,2.2c9.6,6,22.8,13.3,28.4,15.8c1.7,0.7,1.9,0.5-2.1,3.2c-8.5,5.8-19.2,11.5-32.2,17.3c-2.3,1-4.2,1.8-4.3,1.8
		c-0.1,0,0.2-1.2,0.6-2.6c3.1-11.7,4.9-23.5,5-32.9C-134.6,378.9-134.6,378.9-134.1,378.8C-134.2,378.8-134.2,378.8-134.1,378.8
		L-134.1,378.8z M-140.7,381.3c0.3,0.3,0.1,10.8-0.3,13.6c-0.8,6.8-2.2,13.2-4.3,20.4c-0.5,1.7-1,3.2-1.1,3.3
		c-0.2,0.2-6.6-6-8.7-8.5c-3.7-4.2-6.5-8.4-8.6-12.6c-1.1-2.1-2.8-6.2-2.6-6.4C-165.5,390.6-140.8,381.1-140.7,381.3L-140.7,381.3z
		 M-171.3,393.3c0,0,0.1,0,0.1,0c0.1,0.1,0.4,0.8,0.7,1.7c1.5,4.1,4.9,10.1,7.8,13.9c3.2,4.2,7.4,8.7,10.8,11.7
		c1.1,0.9,2.2,1.8,2.3,2c0.3,0.3,0.4,0.2-7.3,3.1c-8.9,3.4-18.5,6.7-29.6,10.3c-2.6,0.9-5.3,1.7-7.9,2.6c-0.4,0.1-0.3-0.1,0.9-2
		c5.5-8.6,13.8-25.4,18.5-37.3c0.8-2.1,1.6-4.1,1.7-4.6c0.2-0.7,0.4-0.9,1-1.2C-171.8,393.4-171.4,393.3-171.3,393.3L-171.3,393.3z
		 M-180.7,397.2c0.1,0.1-2.2,5.1-4.6,9.7c-4.5,8.9-9.5,17.6-16.2,28.2c-1.1,1.8-2.2,3.5-2.3,3.7c-0.2,0.3-0.3,0.2-1.1-1.2
		c-1.6-3.1-2.9-7.2-3.6-10.9c-0.7-3.7-0.6-10,0.2-14c0.6-2.9,0.6-2.9,2-3.6C-200.2,406.1-180.8,397-180.7,397.2L-180.7,397.2z
		 M-99.9,400.5v2c0,10.4-1.1,24.8-2.8,35.2c-0.3,1.8-0.5,3.3-0.6,3.4c0,0-1.4-0.4-3-0.8c-7-2.2-14.7-5.4-21.5-9.2
		c-4.5-2.5-11.1-6.6-11-6.7c0,0,2-1.1,4.3-2.3c9.2-4.8,18-9.9,25.6-15c2.9-1.9,7.2-5,8.1-5.9L-99.9,400.5L-99.9,400.5z M-216,414.3
		c0.2,0,0.1,0.4-0.1,2.1c-0.2,1.2-0.4,3.5-0.5,5c-0.4,6.8,0.7,11.9,4.1,18.8c0.9,1.9,1.7,3.5,1.6,3.6c-0.3,0.3-31.3,9.4-41.1,12
		c-2.9,0.8-5.4,1.5-5.6,1.5c-0.3,0.1-0.4,0-0.2-0.7c1.1-6.9,6.3-15.9,13.6-23.5c4.9-5.1,8.8-8,15.4-11.8
		C-224,418.6-216.7,414.6-216,414.3C-216.1,414.3-216.1,414.3-216,414.3L-216,414.3z M-143,427.4c0,0,1.2,0.6,2.5,1.4
		c10,5.8,24,11.2,35.9,14l1.1,0.2l-1.5,0.8c-6.2,3.5-26.7,12-47.6,19.8c-3,1.1-6,2.2-6.6,2.5c-0.6,0.2-1.1,0.4-1.1,0.3
		c0,0,0.8-1.7,1.9-3.7c5.9-11,11.8-24.3,14.8-33.6C-143.2,428.2-143,427.5-143,427.4L-143,427.4z M-150.4,429.8c0,0-0.3,1-0.8,2.2
		c-4.1,9.9-9.4,20.7-16.3,32.7c-1.7,3.1-3.2,5.6-3.2,5.6c0,0-1.5-0.8-3.1-1.9c-9.9-6.1-18.7-13.6-24.5-20.8l-0.8-1l4.3-1.2
		c15.3-4.2,28.2-8.7,41.1-14.2C-151.9,430.5-150.4,429.8-150.4,429.8z M-104.1,446C-104.1,446-104.1,446-104.1,446
		c0,1.1-2.3,10.7-4.3,17.7c-1.6,5.9-3,10.4-5.6,18.5c-1.1,3.6-2.1,6.5-2.2,6.5c0,0-0.3,0-0.6-0.1c-13.9-2.5-26.4-6-38.1-10.7
		c-3.3-1.3-8-3.4-8.2-3.7c-0.1-0.1,2.7-1.4,6.3-3c21.3-9.3,43.4-19.9,51-24.4C-105,446.3-104.3,446-104.1,446L-104.1,446z
		 M-211,449.7c0.1,0.1-5.9,8.7-14.2,20.3c-2.9,4.1-6.3,8.9-7.5,10.6c-1.3,1.8-3.2,4.6-4.3,6.3l-2,3l-2.1-1.8
		c-2.5-2.1-6.8-6.5-8.7-8.9c-4-5-6.7-10.3-7.8-15.1c-0.5-2.2-0.5-3.4,0-3.5c0.7-0.2,13.2-3.1,24.9-5.9c6.5-1.5,14.1-3.3,16.8-3.9
		C-213.2,450.2-211,449.7-211,449.7L-211,449.7z M-205,451.9l1.5,1.7c6.7,7.5,13.6,13.1,22,18c1.5,0.8,2.6,1.6,2.5,1.6
		c-0.3,0.2-28.9,10.4-42.2,15c-7.4,2.6-13.6,4.7-13.6,4.7c0,0-0.5-0.3-0.9-0.6l-0.8-0.6l1.4-2c4.4-6.4,9.9-13.3,22-27.9L-205,451.9
		L-205,451.9z M-167.6,478.7c0,0,2.1,0.7,4.6,1.6c6.1,2.3,10.9,3.7,17.4,5.4c8,2,19.5,4,26.3,4.5c1,0.1,1.6,0.2,1.4,0.3
		c-0.3,0.2-7.2,2.5-12.3,4.1c-8.1,2.5-32.6,9.8-52.7,15.6c-3.7,1.1-6.9,2-7.1,2c-0.5,0.1-2-0.3-2-0.5c0-0.1,1.1-1.5,2.5-3.1
		c6.7-8.1,13.4-17,19-25.6C-168.9,480.7-167.6,478.7-167.6,478.7L-167.6,478.7z M-175.8,478.9c0,0-3.3,5.4-9.1,14.6
		c-2.5,3.9-5.2,8.3-6.2,9.8c-0.9,1.5-2.3,3.8-3.1,5.2l-1.4,2.4l-0.7-0.2c-1.7-0.5-13.5-4.6-16.7-5.9c-3.9-1.5-7.9-3.4-10.9-5
		c-3.7-2-8.4-5-8.1-5.1c0.1,0,6.5-1.8,14.2-3.9c20.5-5.6,31.9-8.8,39.3-11.1C-177.1,479.2-175.9,478.9-175.8,478.9L-175.8,478.9z
		 M-117.5,492.6L-117.5,492.6c0.2,0.5-7.4,21.5-10.1,28.2c-0.6,1.5-0.8,1.9-1.2,1.8c-0.8,0-11.8-1.6-18.5-2.6
		c-11.7-1.8-31.2-5.2-36.2-6.3l-1.1-0.2l7-1.6c15-3.4,22.2-5.2,29.5-7.4c9.2-2.8,18.4-6.3,27.6-10.6
		C-119.1,493.2-117.8,492.7-117.5,492.6L-117.5,492.6z"/>
	
		<linearGradient id="SVGID_00000165220695109147604870000014410364320880328639_" gradientUnits="userSpaceOnUse" x1="-1892.9583" y1="4023.8745" x2="-1622.9869" y2="4023.8745" gradientTransform="matrix(3.800003e-02 0 0 3.800003e-02 -147.8611 92.0354)">
		<stop  offset="0" style="stop-color:#939FAB"/>
		<stop  offset="1" style="stop-color:#DCDEE1"/>
	</linearGradient>
	<path style="fill:url(#SVGID_00000165220695109147604870000014410364320880328639_);" d="M-152.3,215.6c-1-0.1-17.7,5.9-28.4,10.2
		c-14.5,5.9-25.7,11.5-32.6,16.4c-2.6,1.8-5.8,5.1-6.3,6.3c-0.2,0.5-0.3,1-0.3,1.6l6.3,5.9l14.9,4.8l35.6,6.4l40.7,7l0.4-3.5
		c-0.1,0-0.2,0-0.4,0l-5.3-0.8l-1.1-1.9c-5.5-9.7-11.6-21.8-15.2-30c-2.8-6.3-5.4-13.6-6.8-18.9
		C-151.7,215.9-151.8,215.7-152.3,215.6L-152.3,215.6L-152.3,215.6L-152.3,215.6z M-153.1,218L-153.1,218c0.1,0,0.3,1.4,0.5,2.9
		c0.8,6.6,2.2,12.9,4.5,19.7c1.7,5.2,1.7,4.9-0.3,4.3c-4.8-1.3-26.2-5-41.7-7.2c-2.5-0.3-4.6-0.7-4.6-0.7
		c-0.2-0.2,11.2-6.1,16.2-8.5C-172,225.6-154.4,218.3-153.1,218z M-198.2,239l1.8,0.6c9.9,3.4,34.9,8.2,48.7,9.3
		c1.5,0.1,2.9,0.3,2.9,0.3c0,0-1.3,0.7-3,1.5c-6.7,3.3-14,7.4-19,10.5c-1.5,0.9-2.9,1.7-3,1.7c-0.2,0-1.2-0.2-2.2-0.3l-1.9-0.3
		l-4.7-4.6c-8.2-8-14.7-14.2-17.2-16.5L-198.2,239z M-200.1,240.5l6.6,8.2c3.6,4.5,7.3,9,8.1,10c0.8,1,1.5,1.8,1.4,1.8
		c-0.2,0.1-9.6-1.7-14.5-2.8c-5.1-1.2-7.2-1.7-10.4-2.7l-2.6-0.8v-0.7c0-3.1,4-7.8,10.8-12.6C-200.7,240.9-200.1,240.5-200.1,240.5z
		 M-144,251.7c0.2,0,0.4,0.4,1,1.7c1.6,3.5,6.6,13,7.8,14.8c0.4,0.6,1,0.7-5.6-0.4c-15.9-2.6-21-3.4-21-3.5c0,0,0.5-0.4,1.1-0.7
		c4.9-2.7,9.9-6.2,14.3-9.9c1.1-0.9,2.1-1.7,2.2-1.9C-144.1,251.7-144,251.7-144,251.7z"/>
	
		<radialGradient id="SVGID_00000069399704873268233540000009971392604062301317_" cx="-29288.9668" cy="-20443.3438" r="358.4393" gradientTransform="matrix(-3.649111e-02 -5.481365e-03 1.108591e-02 -7.298223e-02 -970.9695 -1325.0021)" gradientUnits="userSpaceOnUse">
		<stop  offset="0" style="stop-color:#EE352C"/>
		<stop  offset="1" style="stop-color:#A91D22"/>
	</radialGradient>
	<path style="fill:url(#SVGID_00000069399704873268233540000009971392604062301317_);" d="M-219.3,247.9c0,0-1,1.6,0,4.1
		c0.6,1.5,2.4,3.3,4.4,5.2c0,0,20.8,20.3,23.4,23.2c11.5,13.3,16.5,26.4,17,44.5c0.3,11.6-1.9,21.8-7.4,33.7
		c-9.7,21.3-30.3,44.7-62,70.8l4.6-1.5c3-2.2,7.1-4.6,16.6-9.9c22.1-12.1,46.9-23.2,77.3-34.6c43.8-16.5,115.9-35.8,157-42.1
		l4.3-0.7l-0.7-1c-3.7-5.8-6.3-9.4-9.4-13.3c-9-11.1-19.9-20.2-33.3-27.7c-18.4-10.3-42.1-18.3-72.2-24.2
		c-5.7-1.1-18.1-3.3-28.2-4.8c-21.5-3.3-35.3-5.6-50.6-8.2c-5.5-0.9-13.7-2.3-19.1-3.5c-2.8-0.6-8.2-1.9-12.4-3.3
		C-213.4,253.2-218.3,251.9-219.3,247.9L-219.3,247.9z M-207.3,259.6c0,0,0.8,0.2,1.8,0.6c1.8,0.6,4.1,1.3,6.8,2.1
		c2.1,0.6,4.1,1.1,6.2,1.6c2.8,0.7,5.2,1.4,5.2,1.4c0.3,0.3,5.1,15.5,6.7,21.3c0.6,2.2,1.1,4.1,1,4.1c0,0-0.6-0.7-1.2-1.8
		c-5.5-9.6-14.1-19.4-24.2-27.3C-206.3,260.5-207.3,259.7-207.3,259.6z M-184.2,266c0.2,0,1.3,0.1,2.5,0.4c8,1.8,22.2,4.5,31.4,6
		c1.5,0.2,2.8,0.5,2.8,0.6c0,0.1-0.6,0.4-1.3,0.8c-1.5,0.8-7.8,4.5-9.8,5.9c-5.2,3.5-9.9,7.2-13.3,10.6c-1.4,1.4-2.5,2.5-2.5,2.5
		s-0.3-0.8-0.5-1.8c-1.7-6.5-5.2-16.2-8.4-23C-183.8,267-184.3,266-184.2,266C-184.3,266-184.3,266-184.2,266L-184.2,266z
		 M-143.7,273.7c0.3,0.1,0.7,1.7,1.7,5.2c1.7,6.8,2.5,14.4,2.2,21.5c-0.1,2-0.2,3.8-0.3,4l-0.1,0.5l-2.4-0.8c-5-1.6-13.2-4-20.1-5.9
		c-4-1.1-7.2-2.1-7.2-2.2c0-0.3,5.8-6.1,8.3-8.3C-156.9,283.5-144.1,273.6-143.7,273.7L-143.7,273.7z M-140.4,274.2
		c0.1-0.1,19.4,3.2,28.2,4.9c6.5,1.3,16,3.2,16.5,3.5c0.3,0.1-0.7,0.7-3.8,2.1c-12.4,5.6-21.5,10.6-30.7,16.7
		c-2.4,1.6-4.4,2.9-4.4,2.9c0,0-0.1-1.4-0.1-3c0-8.9-1.8-17.9-5.1-25.5C-140.2,274.9-140.5,274.2-140.4,274.2z M-90.6,284
		c0.1,0.1-0.5,3.9-1,6.2c-1.7,7-6.2,17.3-11.8,27.1c-1,1.7-1.9,3.1-2,3.2c-0.1,0-1.4-0.7-2.8-1.5c-5.4-3.2-11.6-6.2-18.4-9
		c-1.9-0.8-3.5-1.5-3.6-1.5c-0.3-0.3,14.8-10.3,22.7-15C-101.1,289.6-90.8,283.8-90.6,284z M-87.1,284.6c0.4,0,8.9,2.3,13.4,3.7
		c11,3.3,23.7,7.9,31.9,11.7l3.4,1.5l-2.4,0.6c-20.1,4.6-37.4,10-54,16.7c-1.4,0.6-2.6,1-2.7,1c-0.1,0,0.4-1.1,1-2.4
		c5-10.6,8.2-21.7,9-31.2C-87.4,285.3-87.2,284.6-87.1,284.6L-87.1,284.6z M-171.9,304.1c0.1-0.1,6.7,1.4,10.2,2.4
		c5.3,1.5,16.7,5.3,16.7,5.6c0,0-1.3,1.1-2.8,2.4c-6.1,5.1-12,10.5-19.1,17.3c-2.1,2-3.9,3.7-4,3.7c-0.1,0-0.1-0.3-0.1-0.7
		c1.1-7.9,0.8-18-0.7-28.2C-171.9,305.2-172,304.1-171.9,304.1z M-35.1,304.2c0.1,0.1-3,5-5,7.7c-2.8,4-6.9,9.4-16.3,21.1
		c-4.9,6.2-10.4,13.2-12.3,15.5c-1.9,2.3-3.4,4.3-3.5,4.3c0,0-0.7-0.8-1.3-1.9c-5.2-7.9-11.5-14.8-19-20.9c-1.4-1.2-3-2.4-3.5-2.8
		c-0.5-0.4-0.9-0.7-0.9-0.8c0-0.1,8-3.6,14-6c10.6-4.3,25-9.5,35.8-12.8C-41.3,305.9-35.2,304.1-35.1,304.2L-35.1,304.2z
		 M-31.5,305.2c0.2,0,1.3,0.5,2.7,1.3C-17.5,313-6.3,321.4,2.5,330c2.5,2.4,8.6,8.8,8.5,8.9c0,0-2.2,0.2-4.7,0.4
		c-19.7,1.5-45,5.7-69.2,11.5c-1.6,0.4-3.1,0.7-3.2,0.7c-0.1,0,1.7-1.8,4-4c14.2-13.7,20.7-22.4,28.4-37.8
		C-32.6,307.3-31.6,305.3-31.5,305.2C-31.6,305.2-31.6,305.2-31.5,305.2L-31.5,305.2z M-135.8,315.8c0.7,0.1,6.7,3,11.3,5.3
		c4.2,2.1,10.5,5.5,10.9,5.8c0,0-2.2,1.2-5,2.6c-8.8,4.4-16.3,8.6-24.2,13.3c-2.2,1.4-4.1,2.5-4.2,2.5c-0.2,0-0.1-0.2,1.1-2.5
		c4.2-7.7,7.6-16.9,9.5-25.8C-136.2,316.3-136,315.8-135.8,315.8L-135.8,315.8z M-141.9,317c0.1,0.1-1.5,5.9-2.4,9
		c-1.9,5.9-5.2,13.4-8.3,19c-0.8,1.3-1.9,3.2-2.5,4.3l-1.2,1.9l-2.6-2.5c-3-3-5.5-4.8-8.7-6.4c-1.3-0.7-2.2-1.2-2.2-1.3
		c0-0.4,8-7.6,14.1-12.9C-151.3,324.3-142.1,316.8-141.9,317L-141.9,317z M-104.7,332.3l2.3,1.5c5.2,3.4,11.4,8,16.2,11.9
		c2.7,2.2,7.8,6.8,8.9,8l0.6,0.6l-3.8,1.1c-21.5,5.9-38,11.2-57.4,18.4c-2.2,0.8-4,1.5-4.1,1.5c-0.3,0-0.5,0.2,4.3-4.2
		c12.4-11.4,23.3-23.9,31.5-36.2L-104.7,332.3L-104.7,332.3z M-114.5,334.7c0.1,0.1-6.3,9.1-10.2,14.2c-4.6,6.1-12.7,16.3-18.4,23
		c-2.3,2.8-4.4,5.1-4.4,5.1c-0.1,0-0.2-0.7-0.2-1.7c0-5.7-1.5-11.7-4-16.9c-1.1-2.2-1.3-2.7-1-2.9c0.9-0.8,14.5-8.6,23.1-13.2
		C-123.7,339.2-114.6,334.6-114.5,334.7L-114.5,334.7z M-173.7,349.2c0.1,0,1.2,0.6,2.4,1.2c3,1.6,5.7,3.5,8.1,5.4
		c0.1,0.1-1.1,1.1-2.7,2.2c-4.4,3.2-11.2,8.3-15.1,11.4c-4.1,3.3-4.3,3.4-3.8,2.7c3.1-4.7,4.6-7.4,6.3-10.8c1.5-3,2.9-6.7,3.9-9.8
		C-174.2,350.3-173.8,349.2-173.7,349.2L-173.7,349.2z M-157.9,361.6c0.2,0,0.5,0.4,1.8,2.2c2.7,4,4.7,9.3,5.2,13.6l0.1,0.9
		l-6.4,2.5c-11.5,4.4-22.1,8.9-29.2,12.1c-2,0.9-5.5,2.6-7.8,3.7c-2.3,1.2-4.2,2.1-4.2,2s1.5-1.1,3.2-2.4
		c14-10.2,26.1-21.3,35.2-32.5C-159,362.7-158.1,361.6-157.9,361.6L-157.9,361.6L-157.9,361.6z M-165.2,363.4
		c0.2,0.2-5.2,6.2-8.8,9.9c-9,9.2-18,16.4-29.1,23.5c-1.4,0.9-2.7,1.7-2.8,1.8c-0.3,0.2,0.1-0.3,5-5.6c3.1-3.3,5.4-6.1,8.1-9.6
		c1.8-2.3,2.1-2.6,4.7-4.5C-181.2,374-165.3,363.2-165.2,363.4z"/>
</g>
</svg>
